<?xml version="1.0" encoding="UTF-8" standalone="no"?>
<svg xmlns="http://www.w3.org/2000/svg" viewBox="0 0 388.12 264.29">
  <path d="M193.35 0h17.03v27.78l13.51-13.51h19.59l-17.95 17.95 20.61 20.61h-21.08l-14.68-14.68v14.68h-17.03V0zm-42.97 0h17.03v27.78l13.51-13.51h19.59l-17.95 17.95 20.61 20.61h-21.08l-14.68-14.68v14.68h-17.03V0z" fill="#00758f"/>
  <path d="M107.41 0h17.03v27.78l13.51-13.51h19.59l-17.95 17.95 20.61 20.61h-21.08l-14.68-14.68v14.68h-17.03V0z" fill="#00758f"/>
  <path d="M0 0h91.37v10.73H17.03v13.51h68.53v10.73H17.03v13.51h74.34v10.73H0V0z" fill="#00758f"/>
  <path d="M275.95 0h91.37v10.73h-74.34v13.51h68.53v10.73h-68.53v13.51h74.34v10.73h-91.37V0z" fill="#f29111"/>
  <path d="M193.35 59.22h17.03v27.78l13.51-13.51h19.59l-17.95 17.95 20.61 20.61h-21.08l-14.68-14.68v14.68h-17.03V59.22zm-42.97 0h17.03v27.78l13.51-13.51h19.59l-17.95 17.95 20.61 20.61h-21.08l-14.68-14.68v14.68h-17.03V59.22z" fill="#f29111"/>
  <path d="M107.41 59.22h17.03v27.78l13.51-13.51h19.59l-17.95 17.95 20.61 20.61h-21.08l-14.68-14.68v14.68h-17.03V59.22z" fill="#f29111"/>
  <path d="M0 59.22h91.37v10.73H17.03v13.51h68.53v10.73H17.03v13.51h74.34v10.73H0V59.22z" fill="#f29111"/>
  <path d="M275.95 59.22h91.37v10.73h-74.34v13.51h68.53v10.73h-68.53v13.51h74.34v10.73h-91.37V59.22z" fill="#00758f"/>
</svg>
