<?xml version="1.0" encoding="UTF-8"?>
<svg width="256px" height="256px" viewBox="0 0 256 256" version="1.1" xmlns="http://www.w3.org/2000/svg" preserveAspectRatio="xMidYMid">
    <g>
        <path d="M245.969687,149.398964 L245.969687,167.699326 L181.391164,203.657719 L181.391164,186.561145 L245.969687,149.398964 Z M181.391164,85.4320321 L245.969687,121.390638 L245.969687,139.690999 L181.391164,103.732606 L181.391164,85.4320321 Z M10.0301327,121.390638 L74.6086556,85.4320321 L74.6086556,103.732606 L10.0301327,139.690999 L10.0301327,121.390638 Z M74.6086556,203.657719 L10.0301327,167.699326 L10.0301327,149.398964 L74.6086556,186.561145 L74.6086556,203.657719 Z" fill="#A41E11"></path>
        <path d="M245.969687,121.390638 L181.391164,157.34903 L181.391164,139.048669 L245.969687,103.090276 L245.969687,121.390638 Z M181.391164,57.4234643 L245.969687,93.3818571 L245.969687,111.682218 L181.391164,75.7238257 L181.391164,57.4234643 Z M10.0301327,93.3818571 L74.6086556,57.4234643 L74.6086556,75.7238257 L10.0301327,111.682218 L10.0301327,93.3818571 Z M74.6086556,157.34903 L10.0301327,121.390638 L10.0301327,103.090276 L74.6086556,139.048669 L74.6086556,157.34903 Z" fill="#D82C20"></path>
        <path d="M245.969687,65.3732893 L181.391164,101.331682 L181.391164,83.0313209 L245.969687,47.0729281 L245.969687,65.3732893 Z M181.391164,29.4148965 L245.969687,65.3732893 L245.969687,83.6736507 L181.391164,47.7152579 L181.391164,29.4148965 Z M10.0301327,65.3732893 L74.6086556,29.4148965 L74.6086556,47.7152579 L10.0301327,83.6736507 L10.0301327,65.3732893 Z M74.6086556,101.331682 L10.0301327,65.3732893 L10.0301327,47.0729281 L74.6086556,83.0313209 L74.6086556,101.331682 Z" fill="#A41E11"></path>
    </g>
</svg>
