<?xml version="1.0" encoding="UTF-8"?>
<svg width="256px" height="256px" viewBox="0 0 256 256" version="1.1" xmlns="http://www.w3.org/2000/svg" preserveAspectRatio="xMidYMid">
    <defs>
        <linearGradient x1="49.9989865%" y1="-0.0107017045%" x2="49.9989865%" y2="100.010702%" id="linearGradient-1">
            <stop stop-color="#97D9F6" offset="0%"></stop>
            <stop stop-color="#0F80CC" offset="92.024%"></stop>
            <stop stop-color="#0F80CC" offset="100%"></stop>
        </linearGradient>
    </defs>
    <g>
        <path d="M122.397,0.0002 C134.775,0.0002 145.82,2.6882 155.536,8.0652 C165.249,13.4412 173.649,20.8242 180.726,30.2142 C187.804,39.6032 193.51,50.6412 197.843,63.3272 C202.177,76.0132 204.343,89.8012 204.343,104.693 C204.343,119.584 202.177,133.372 197.843,146.058 C193.51,158.744 187.804,169.782 180.726,179.171 C173.649,188.561 165.249,195.944 155.536,201.32 C145.82,206.696 134.775,209.385 122.397,209.385 C110.02,209.385 98.9755,206.696 89.2625,201.32 C79.5485,195.944 71.1485,188.561 64.0705,179.171 C56.9935,169.782 51.2875,158.744 46.9535,146.058 C42.6205,133.372 40.4535,119.584 40.4535,104.693 C40.4535,89.8012 42.6205,76.0132 46.9535,63.3272 C51.2875,50.6412 56.9935,39.6032 64.0705,30.2142 C71.1485,20.8242 79.5485,13.4412 89.2625,8.0652 C98.9755,2.6882 110.02,0.0002 122.397,0.0002" fill="#003B57"></path>
        <path d="M122.397,0.0002 C110.02,0.0002 98.9755,2.6882 89.2625,8.0652 C79.5485,13.4412 71.1485,20.8242 64.0705,30.2142 C56.9935,39.6032 51.2875,50.6412 46.9535,63.3272 C42.6205,76.0132 40.4535,89.8012 40.4535,104.693 C40.4535,119.584 42.6205,133.372 46.9535,146.058 C51.2875,158.744 56.9935,169.782 64.0705,179.171 C71.1485,188.561 79.5485,195.944 89.2625,201.32 C98.9755,206.696 110.02,209.385 122.397,209.385 L122.397,0.0002 Z" fill="url(#linearGradient-1)"></path>
    </g>
</svg>
