<?xml version="1.0" encoding="UTF-8"?>
<svg width="256px" height="256px" viewBox="0 0 256 256" version="1.1" xmlns="http://www.w3.org/2000/svg" preserveAspectRatio="xMidYMid">
    <g>
        <path d="M219.683,37.5891667 C219.683,37.5891667 225.787,63.7055 193.455,85.8198333 C161.123,107.934167 147.3,115.767333 147.3,115.767333 C147.3,115.767333 134.993667,125.0805 137.523667,140.463667 C140.053667,155.846833 150.896833,157.557167 150.896833,157.557167 L150.896833,157.557167 C150.896833,157.557167 123.0605,166.2345 107.677333,166.2345 C92.2941667,166.2345 84.461,157.557167 84.461,157.557167 C84.461,157.557167 95.3041667,155.846833 97.8341667,140.463667 C100.364167,125.0805 88.0578333,115.767333 88.0578333,115.767333 C88.0578333,115.767333 74.2341667,107.934167 41.9021667,85.8198333 C9.57016667,63.7055 15.6741667,37.5891667 15.6741667,37.5891667 C15.6741667,37.5891667 47.1868333,60.5471667 66.4008333,71.3903333 C85.6148333,82.2335 97.8341667,85.8198333 97.8341667,85.8198333 L137.523667,85.8198333 C137.523667,85.8198333 149.743,82.2335 168.957,71.3903333 C188.171,60.5471667 219.683667,37.5891667 219.683667,37.5891667 L219.683,37.5891667 Z" fill="#BC1142"></path>
        <path d="M117.712167,0.000166666667 C117.712167,0.000166666667 142.118333,25.3695 142.118333,56.8821667 C142.118333,88.3948333 117.712167,115.474333 117.712167,115.474333 C117.712167,115.474333 93.306,88.3948333 93.306,56.8821667 C93.306,25.3695 117.712167,0.000166666667 117.712167,0.000166666667 L117.712167,0.000166666667 Z" fill="#BC1142"></path>
    </g>
</svg>
