<?xml version="1.0" encoding="UTF-8"?>
<svg width="256px" height="256px" viewBox="0 0 256 256" version="1.1" xmlns="http://www.w3.org/2000/svg" preserveAspectRatio="xMidYMid">
    <g>
        <path d="M128,0 C57.28,0 0,57.28 0,128 C0,198.72 57.28,256 128,256 C198.72,256 256,198.72 256,128 C256,57.28 198.72,0 128,0" fill="#1287B1"></path>
        <path d="M128,37.12 C78.72,37.12 37.12,78.72 37.12,128 C37.12,177.28 78.72,218.88 128,218.88 C177.28,218.88 218.88,177.28 218.88,128 C218.88,78.72 177.28,37.12 128,37.12 M128,64 C162.4,64 192,93.6 192,128 C192,162.4 162.4,192 128,192 C93.6,192 64,162.4 64,128 C64,93.6 93.6,64 128,64" fill="#FFFFFF"></path>
    </g>
</svg>
