<?xml version="1.0" encoding="UTF-8"?>
<svg viewBox="0 0 256 549" version="1.1" xmlns="http://www.w3.org/2000/svg" preserveAspectRatio="xMidYMid">
    <g>
        <path d="M175.622,61.108C152.612,33.807 132.797,6.078 128.749,0.525c-0.795,-1.089 -2.057,-1.755 -3.41,-1.755c-1.353,0 -2.615,0.666 -3.41,1.755c-4.048,5.553 -23.863,33.282 -46.873,60.583c-89.058,105.881 -98.094,293.81 -21.29,407.643c19.751,29.288 46.87,53.198 80.577,71.014c0.841,0.444 1.762,0.666 2.683,0.666c0.921,0 1.842,-0.222 2.683,-0.666c33.707,-17.816 60.826,-41.726 80.577,-71.014c76.804,-113.833 67.768,-301.762 -21.29,-407.643l0,0Z" fill="#001E2B"/>
        <path d="M128.288,469.561c-3.273,41.484 -4.64,126.281 -4.64,126.281l7.147,2.428c0,0 4.056,-82.672 4.47,-125.681c0.112,-11.629 -6.977,-3.028 -6.977,-3.028Z" fill="#21313C"/>
        <path d="M126.667,469.561c0,0 -5.696,-3.813 -5.464,1.681c0.732,17.58 0.481,86.057 0.481,86.057l3.131,37.115c0,0 -0.235,-85.579 -0.177,-87.59c0.312,-10.749 2.029,-37.263 2.029,-37.263Z" fill="#21313C"/>
    </g>
</svg>
