<?xml version="1.0" encoding="UTF-8"?>
<svg width="256px" height="256px" viewBox="0 0 256 256" version="1.1" xmlns="http://www.w3.org/2000/svg" preserveAspectRatio="xMidYMid">
    <g>
        <path d="M226.861,71.431 L226.861,184.568 C226.861,208.732 207.312,228.281 183.148,228.281 L72.852,228.281 C48.688,228.281 29.139,208.732 29.139,184.568 L29.139,71.431 C29.139,47.267 48.688,27.718 72.852,27.718 L183.148,27.718 C207.312,27.718 226.861,47.267 226.861,71.431" fill="#FF0000"></path>
        <path d="M127.999,127.999 C127.999,139.724 138.274,149.999 149.999,149.999 C161.724,149.999 171.999,139.724 171.999,127.999 C171.999,116.274 161.724,105.999 149.999,105.999 C138.274,105.999 127.999,116.274 127.999,127.999 M83.999,127.999 C83.999,139.724 94.274,149.999 105.999,149.999 C117.724,149.999 127.999,139.724 127.999,127.999 C127.999,116.274 117.724,105.999 105.999,105.999 C94.274,105.999 83.999,116.274 83.999,127.999" fill="#FFFFFF"></path>
    </g>
</svg>
