<?xml version="1.0" encoding="UTF-8" standalone="no"?>
<svg xmlns="http://www.w3.org/2000/svg" viewBox="0 0 432.071 445.383">
  <path d="M403.484 251.29c-21.293-6.232-34.537-4.157-49.449 3.075 9.081-29.136 8.675-54.923 8.675-54.923s7.053-39.315-8.675-65.11c-27.514-34.567-59.852-61.274-73.276-81.7-13.425-20.425-21.293-54.923-21.293-54.923S246.798-19 196.942-19c-49.855 0-56.908 16.71-56.908 16.71s-7.867 34.498-21.293 54.923c-13.425 20.426-45.763 47.133-73.276 81.7-15.728 25.795-8.675 65.11-8.675 65.11s-.406 25.787 8.675 54.923c-14.912-7.232-28.156-9.307-49.449-3.075-38.71 11.382-42.71 44.092-27.391 62.61 15.32 18.517 49.449 29.136 49.449 29.136s-4.129 17.754 24.609 47.133c19.48 19.89 47.808 6.232 47.808 6.232s4.943 40.36 54.798 47.133c49.855 6.774 81.144-19.89 81.144-19.89s31.289 26.664 81.144 19.89c49.855-6.773 54.798-47.133 54.798-47.133s28.329 13.658 47.808-6.232c28.738-29.38 24.609-47.133 24.609-47.133s34.13-10.619 49.449-29.136c15.319-18.518 11.319-51.228-27.391-62.61" fill="#336791"/>
  <path d="M264.752 94.132c45.763 56.577 19.48 111.5 19.48 111.5 49.855-42.433 24.203-96.814 24.203-96.814s-25.652-30.18-43.683-14.686m-97.48 0c-18.031-15.494-43.683 14.686-43.683 14.686s-25.652 54.38 24.203 96.814c0 0-26.283-54.923 19.48-111.5" fill="#fff"/>
</svg>
